<?xml version="1.0" encoding="UTF-8" standalone="no"?>
<!-- Timbre wordmark v2: the 'b' bowl is the Stump & Sprout wood (thick bark,
     wobbly growth rings, radial cracks, sprout) with a tonearm resting on the
     rings. GPL-3.0 -->

<svg
   width="762"
   height="320"
   viewBox="0 0 762 320"
   version="1.1"
   id="svg20"
   sodipodi:docname="timbre-7-wordmark-stump.svg"
   inkscape:version="1.4.4 (dcaf3e7d9e, 2026-05-05)"
   xmlns:inkscape="http://www.inkscape.org/namespaces/inkscape"
   xmlns:sodipodi="http://sodipodi.sourceforge.net/DTD/sodipodi-0.dtd"
   xmlns="http://www.w3.org/2000/svg"
   xmlns:svg="http://www.w3.org/2000/svg">
  <sodipodi:namedview
     id="namedview20"
     pagecolor="#ffffff"
     bordercolor="#000000"
     borderopacity="0.25"
     inkscape:showpageshadow="2"
     inkscape:pageopacity="0.0"
     inkscape:pagecheckerboard="0"
     inkscape:deskcolor="#d1d1d1"
     inkscape:zoom="1.7014757"
     inkscape:cx="375.55635"
     inkscape:cy="166.91393"
     inkscape:window-width="2560"
     inkscape:window-height="1052"
     inkscape:window-x="0"
     inkscape:window-y="0"
     inkscape:window-maximized="1"
     inkscape:current-layer="svg20" />
  <defs
     id="defs3">
    <radialGradient
       id="woodT7"
       cx="0.46"
       cy="0.46"
       r="0.75">
      <stop
         offset="0"
         stop-color="#d3a276"
         id="stop1" />
      <stop
         offset="0.55"
         stop-color="#b07b4a"
         id="stop2" />
      <stop
         offset="1"
         stop-color="#8a5a33"
         id="stop3" />
    </radialGradient>
  </defs>
  <rect
     width="761.29688"
     height="320"
     rx="40.602501"
     fill="#1b1c22"
     id="rect3"
     x="0"
     y="0"
     style="stroke-width:0.91972" />
  <!-- wordmark -->
  <text
     x="80"
     y="210"
     font-family="Cantarell, Inter, sans-serif"
     font-weight="700"
     font-size="150"
     letter-spacing="2"
     fill="#eae3cf"
     id="text3">tim</text>
  <text
     x="450"
     y="210"
     font-family="Cantarell, Inter, sans-serif"
     font-weight="700"
     font-size="150px"
     letter-spacing="2"
     fill="#eae3cf"
     id="text4">re</text>
  <!-- the 'b' stem -->
  <rect
     x="330"
     y="64"
     width="22"
     height="146"
     rx="11"
     fill="#eae3cf"
     id="rect4" />
  <!-- ====== the 'b' bowl: stump wood ====== -->
  <!-- thick irregular bark ring -->
  <path
     d="M 396 100            C 434 98, 462 128, 460 164            C 458 200, 430 228, 394 226            C 358 224, 332 196, 334 160            C 336 126, 360 102, 396 100 Z"
     fill="#4a2e18"
     id="path4" />
  <!-- bark notches -->
  <g
     stroke="#2e1c0e"
     stroke-width="4"
     stroke-linecap="round"
     id="g9">
    <line
       x1="396"
       y1="100"
       x2="396"
       y2="110"
       id="line4" />
    <line
       x1="448"
       y1="128"
       x2="438"
       y2="136"
       id="line5" />
    <line
       x1="458"
       y1="186"
       x2="447"
       y2="182"
       id="line6" />
    <line
       x1="414"
       y1="224"
       x2="412"
       y2="213"
       id="line7" />
    <line
       x1="352"
       y1="200"
       x2="361"
       y2="193"
       id="line8" />
    <line
       x1="336"
       y1="142"
       x2="347"
       y2="146"
       id="line9" />
  </g>
  <!-- sapwood face -->
  <path
     d="M 396 112            C 426 110, 448 134, 446 163            C 444 192, 422 216, 393 214            C 364 212, 345 190, 347 161            C 349 134, 366 114, 396 112 Z"
     fill="url(#woodT7)"
     id="path9" />
  <!-- wobbly growth rings, off-center heart -->
  <g
     fill="none"
     stroke="#6e4527"
     stroke-width="2.5"
     opacity="0.9"
     id="g12">
    <path
       d="M 392 122 C 418 120, 438 140, 436 164 C 434 188, 414 206, 392 204 C 370 202, 356 186, 358 162 C 360 140, 370 124, 392 122 Z"
       id="path10" />
    <path
       d="M 390 134 C 410 132, 424 148, 422 164 C 420 182, 406 194, 390 192 C 374 190, 366 178, 368 160 C 370 146, 376 136, 390 134 Z"
       id="path11" />
    <path
       d="M 388 146 C 400 144, 410 154, 409 164 C 408 176, 400 182, 388 181 C 378 180, 374 172, 375 160 C 376 152, 378 148, 388 146 Z"
       id="path12" />
  </g>
  <!-- radial cracks -->
  <g
     stroke="#4a2e18"
     stroke-width="3.5"
     stroke-linecap="round"
     id="g14">
    <path
       d="M 388 158 L 362 124"
       id="path13" />
    <path
       d="M 390 162 L 432 192"
       id="path14" />
  </g>
  <!-- heart label + spindle -->
  <circle
     cx="389"
     cy="160"
     r="11"
     fill="#eee3c8"
     id="circle14" />
  <circle
     cx="389"
     cy="160"
     r="11"
     fill="none"
     stroke="#8a5a33"
     stroke-width="2.5"
     id="circle15" />
  <circle
     cx="389"
     cy="160"
     r="2.6"
     fill="#3a2412"
     id="circle16" />
  <!-- sprout from the bark, tucked left of the stem -->
  <g
     id="g18"
     transform="matrix(0.54367201,0,0,0.54367201,184.16909,58.219988)">
    <path
       d="M 357,108 C 355,96 356,88 352,78"
       fill="none"
       stroke="#5b7d42"
       stroke-width="5"
       stroke-linecap="round"
       id="path16" />
    <path
       d="m 355,90 q -16,-9 -27,1 13,9 27,-1 z"
       fill="#7ba05b"
       id="path17" />
    <path
       d="m 354,80 q 13,-11 25,-3 -10,11 -25,3 z"
       fill="#8fb56e"
       id="path18" />
  </g>
  <path
     d="m 410.56418,151.05948 7.303,1.92436 -4.10667,-6.29037 z"
     fill="#e89aa7"
     id="path20"
     style="stroke-width:0.473012" />
  <!-- tonearm (record hand) resting on the rings -->
  <g
     stroke="#eae3cf"
     stroke-width="7"
     stroke-linecap="round"
     fill="none"
     id="g19"
     transform="matrix(0.56799775,0,0,0.60795779,165.6164,66.765869)">
    <path
       d="m 482,86 -52,52"
       id="path19" />
  </g>
  <circle
     cx="437.94806"
     cy="120.49351"
     fill="#eae3cf"
     id="circle19"
     r="11" />
  <!-- tagline -->
  <text
     x="80"
     y="262"
     font-family="Cantarell, Inter, sans-serif"
     font-weight="400"
     font-size="30px"
     letter-spacing="10"
     fill="#6d8fa3"
     id="text20">YOUR SOUND, DEEP ROOTS</text>
</svg>
