<?xml version="1.0" encoding="UTF-8"?>
<!-- Timbre symbolic: stump rings + sprout, single-color (libadwaita recolors). -->
<svg width="16px" height="16px" viewBox="0 0 16 16" xmlns="http://www.w3.org/2000/svg">
  <g fill="#2e3436">
    <!-- outer bark ring -->
    <path d="m 8 1 c -3.59 0 -6.5 2.91 -6.5 6.5 s 2.91 6.5 6.5 6.5 s 6.5 -2.91 6.5 -6.5 s -2.91 -6.5 -6.5 -6.5 z m 0 1 c 3.04 0 5.5 2.46 5.5 5.5 s -2.46 5.5 -5.5 5.5 s -5.5 -2.46 -5.5 -5.5 s 2.46 -5.5 5.5 -5.5 z m 0 0"/>
    <!-- middle growth ring -->
    <path d="m 8 3.5 c -2.21 0 -4 1.79 -4 4 s 1.79 4 4 4 s 4 -1.79 4 -4 s -1.79 -4 -4 -4 z m 0 1 c 1.66 0 3 1.34 3 3 s -1.34 3 -3 3 s -3 -1.34 -3 -3 s 1.34 -3 3 -3 z m 0 0"/>
    <!-- heart spindle -->
    <path d="m 8 6.5 c -0.55 0 -1 0.45 -1 1 s 0.45 1 1 1 s 1 -0.45 1 -1 s -0.45 -1 -1 -1 z m 0 0"/>
    <!-- sprout -->
    <path d="m 11.4 2.1 c 0.2 0.7 0.1 1.4 -0.3 2 c 0.7 0.1 1.4 -0.1 1.9 -0.6 c 0.4 -0.5 0.5 -1.1 0.4 -1.7 c -0.6 -0.1 -1.2 0 -1.6 0.4 c -0.1 -0.7 -0.1 -1.2 -0.4 -1.8 c -0.5 0.4 -0.7 1 -0.6 1.6 c 0.1 0.1 0.4 0.1 0.6 0.1 z m 0 0"/>
  </g>
</svg>
